<svg width="120" height="32" viewBox="0 0 120 32" fill="none" xmlns="http://www.w3.org/2000/svg">
<path d="M14.7436 28.9417C11.5949 20.6287 11.2654 14.7207 11.2379 14.0763C11.1405 10.2977 12.5215 7.3013 12.5353 7.27174C13.2455 5.73662 13.9498 4.19165 14.6295 2.68018C14.6649 2.60136 14.657 2.5117 14.6079 2.44075C14.4239 2.17768 13.8082 1.88011 13.6232 1.79439C13.6016 1.78454 13.577 1.78454 13.5554 1.79242C13.5337 1.80129 13.516 1.81804 13.5062 1.83971C12.0907 5.19667 10.7116 8.13686 9.11408 11.5411C8.41768 13.026 7.70058 14.5542 6.91168 16.2608C6.90388 16.2785 6.87728 16.2677 6.88318 16.2499C8.92038 10.1804 10.2729 4.79171 11.1237 1.21305C11.1297 1.19039 11.1405 1.12241 11.0549 1.1096C10.7362 1.05935 10.3998 1.01599 10.0555 0.979536C10.0142 0.975586 9.97388 1.0022 9.96398 1.04358C9.02558 4.98384 7.45468 10.9628 5.22968 17.4067C5.22378 17.4244 5.19618 17.4175 5.20018 17.3988C6.60968 11.0761 7.35538 4.99271 7.73598 0.936176C7.73798 0.912526 7.73698 0.849466 7.66618 0.844546H7.65238C7.33468 0.840606 7.01498 0.841586 6.63928 0.850456C6.59698 0.851446 6.56148 0.883956 6.55758 0.927306C6.20448 4.67938 5.71458 8.36346 5.10078 11.8821C5.09788 11.8998 5.07228 11.8988 5.07128 11.8801C4.91688 8.71126 4.59128 5.09518 4.10338 1.12438C4.10038 1.10171 4.07578 1.04457 4.00798 1.05048C3.66368 1.09679 3.33318 1.15 3.02528 1.2101C2.97318 1.21995 2.93868 1.26922 2.94458 1.32242C3.25148 3.82906 3.49548 6.21844 3.67058 8.42946C3.67158 8.44726 3.64798 8.45216 3.64208 8.43536C2.96528 6.44604 2.05838 4.2488 0.942882 1.89982C0.922182 1.85646 0.871082 1.83774 0.826782 1.85745C0.518882 2.00032 0.128382 2.22103 0.0201823 2.4644C-0.0083177 2.52746 -0.00631799 2.60234 0.024182 2.66738C1.53798 5.90215 2.63578 8.81666 3.28698 11.3303C3.28698 11.3303 3.38338 11.7116 3.39218 11.752C4.15358 14.9375 3.79848 17.9693 3.67248 18.8216C2.99278 23.2634 2.49608 24.4793 0.501182 28.9112C0.463882 28.989 0.463882 29.0472 0.463882 29.0472C0.471682 29.3585 0.770782 29.665 1.33238 29.9753C1.35308 29.9862 1.41798 29.996 1.44648 29.9468L1.45048 29.9389C1.81738 29.2038 2.13998 28.5584 2.43808 27.9623C3.43058 25.9769 4.16438 24.5088 5.41558 21.9707C5.42438 21.9539 5.44998 21.9628 5.44408 21.9805C4.23718 25.9385 3.16398 30.3734 3.12558 30.5675C3.11678 30.6118 3.14238 30.6542 3.18468 30.667C3.48658 30.7567 3.80928 30.8375 4.14368 30.9074C4.19488 30.9183 4.24598 30.8867 4.25978 30.8365C4.51748 29.8955 4.77228 28.9132 5.01818 27.9633C5.67428 25.433 6.35198 22.822 7.19798 20.5144C7.20488 20.4966 7.23038 20.5045 7.22748 20.5232C6.55168 24.4458 6.61658 27.919 6.65988 30.2483C6.66478 30.5271 6.66978 30.7902 6.67368 31.0365C6.67368 31.0868 6.71298 31.1272 6.76318 31.1301C7.08088 31.1459 7.75958 31.1577 7.75958 31.1577H7.76548C7.80488 31.1577 7.85008 31.136 7.85008 31.0769C7.85008 31.0769 7.73108 23.1984 8.96358 17.8846C8.96758 17.8668 8.99408 17.8698 8.99408 17.8885C8.78948 23.0023 9.67288 27.7357 10.3663 30.8858C10.3752 30.9291 10.4155 30.9567 10.4588 30.9508C10.7991 30.9064 11.1346 30.8532 11.4533 30.7922C11.4759 30.7882 11.5349 30.7626 11.5192 30.6917C11.0785 28.6915 9.75738 22.6958 10.2611 16.3938C10.2621 16.3751 10.2896 16.3751 10.2916 16.3938C10.9772 21.7519 12.612 26.6637 13.879 29.8738C13.9036 29.932 13.9567 29.9418 14.0009 29.9152C14.4652 29.6403 14.7289 29.3487 14.7623 29.0728C14.7672 29.0304 14.7613 28.988 14.7436 28.9417Z" fill="url(#paint0_linear_2001_51)"/>
<path fill-rule="evenodd" clip-rule="evenodd" d="M38.7512 12.2924C38.7512 9.31596 36.8174 7.55035 33.572 7.55035H27.1484V23.6431H29.5026V17.0345H32.7648L35.6571 23.6431H37.9945V23.0882L35.1527 16.8663C37.4732 16.3618 38.7512 14.7307 38.7512 12.2924ZM29.5026 9.66916H33.3534C35.4385 9.66916 36.4138 10.4932 36.4138 12.2756C36.4138 14.0581 35.4385 14.8821 33.3534 14.8821H29.5026V9.66916ZM48.8575 19.8595C48.5043 21.3057 47.4281 22.0119 45.5784 22.0119C43.3755 22.0119 42.0134 20.7171 41.8621 18.4638H51.1108V17.2363C51.1108 13.7722 48.9752 11.603 45.5279 11.603C41.8957 11.603 39.6424 13.974 39.6424 17.7744C39.6424 21.6924 41.8117 23.9458 45.5784 23.9458C49.1265 23.9458 50.7913 21.8438 51.1612 19.8932L51.1948 19.7586H48.8911L48.8575 19.8595ZM41.9294 16.5804C42.2657 14.6971 43.611 13.5704 45.5279 13.5704C47.5627 13.5704 48.7566 14.6298 48.8911 16.5804H41.9294ZM62.9323 13.8227C63.5882 12.3429 64.8325 11.6198 66.7495 11.6198C69.44 11.6198 70.9366 13.335 70.9366 16.4796V23.6263H68.717V16.4627C68.717 14.5121 67.8762 13.6041 66.0769 13.6041C65.1856 13.6041 63.1173 13.9404 63.1173 17.0177V23.6263H60.8976V16.4627C60.8976 14.5121 60.0568 13.6041 58.2576 13.6041C57.3663 13.6041 55.298 13.9404 55.298 17.0177V23.6263H53.0783V11.9393H55.298V13.6713V13.705H55.3316C55.3484 13.705 55.3652 13.705 55.3989 13.6377C56.0211 12.2756 57.1813 11.6198 58.9134 11.6198C60.7631 11.6198 62.0579 12.427 62.6633 13.9404C62.7137 14.0413 62.7305 14.0413 62.781 14.0413C62.8314 14.0413 62.8482 14.0076 62.9155 13.8563L62.9323 13.8227ZM82.0185 19.8595C81.6655 21.3057 80.5885 22.0119 78.7391 22.0119C76.5362 22.0119 75.1742 20.7171 75.0228 18.4638H84.2715V17.2363C84.2715 13.7722 82.1355 11.603 78.6887 11.603C75.0564 11.603 72.8031 13.974 72.8031 17.7744C72.8031 21.6924 74.9724 23.9458 78.7391 23.9458C82.2875 23.9458 83.9515 21.8438 84.3215 19.8932L84.3555 19.7586H82.0515L82.0185 19.8595ZM75.0901 16.5805C75.4264 14.6971 76.7717 13.5704 78.6887 13.5704C80.7235 13.5704 81.9175 14.6298 82.0515 16.5805H75.0901ZM88.6775 13.8731C89.4675 12.3092 90.6785 11.6198 92.6455 11.6198C95.5215 11.6198 97.1695 13.3518 97.1695 16.3618V23.6431H94.9495V16.6982C94.9495 14.6803 93.9235 13.6209 91.9895 13.6209C89.7535 13.6209 88.5765 14.983 88.5765 17.5726V23.6431H86.3565V11.9561H88.5765V13.9236C88.6435 13.9404 88.6435 13.9404 88.6775 13.8731ZM103.207 8.86196H100.987V11.9393H98.3465V13.9404H100.987V20.2127C100.987 22.5164 102.113 23.6431 104.417 23.6431H106.519V21.642H106.065C105.028 21.642 104.41 21.6927 103.979 21.7281C103.914 21.7334 103.852 21.7385 103.795 21.7429C103.77 21.745 103.745 21.7471 103.722 21.7492C103.703 21.7508 103.684 21.7525 103.666 21.7541C103.526 21.7664 103.412 21.7765 103.307 21.7765C103.223 21.7765 103.19 21.7597 103.156 21.7261C103.122 21.6925 103.106 21.6588 103.106 21.5747C103.106 21.4763 103.115 21.3688 103.126 21.2326V21.2308C103.13 21.1814 103.135 21.1282 103.139 21.0703C103.173 20.6162 103.223 19.9268 103.223 18.5647V13.9404H106.519V11.9393H103.223V8.86196H103.207ZM107.629 17.7912C107.629 14.0413 110.017 11.6198 113.716 11.6198C117.416 11.6198 119.804 14.0413 119.804 17.7912C119.804 21.5411 117.416 23.9626 113.716 23.9626C110.017 23.9626 107.629 21.5411 107.629 17.7912ZM113.716 21.9615C116.087 21.9615 117.567 20.364 117.567 17.7912C117.567 15.2184 116.087 13.6209 113.716 13.6209C111.345 13.6209 109.866 15.2184 109.866 17.7912C109.866 20.364 111.345 21.9615 113.716 21.9615Z" fill="#283E3E"/>
<defs>
<linearGradient id="paint0_linear_2001_51" x1="7.38198" y1="0.842346" x2="7.38198" y2="31.1577" gradientUnits="userSpaceOnUse">
<stop stop-color="#3C5D5D"/>
<stop offset="1" stop-color="#1E2F2F"/>
</linearGradient>
</defs>
</svg>
