<svg width="120" height="31" viewBox="0 0 120 31" fill="none" xmlns="http://www.w3.org/2000/svg">
<path d="M14.7436 28.0993C11.5949 19.7863 11.2654 13.8783 11.2379 13.2339C11.1405 9.45531 12.5215 6.45895 12.5353 6.42939C13.2455 4.89427 13.9498 3.3493 14.6295 1.83783C14.6649 1.75901 14.657 1.66935 14.6079 1.5984C14.4239 1.33533 13.8082 1.03776 13.6232 0.952044C13.6016 0.942194 13.577 0.942194 13.5554 0.950074C13.5337 0.958944 13.516 0.975694 13.5062 0.997364C12.0907 4.35432 10.7116 7.29451 9.11408 10.6987C8.41768 12.1836 7.70058 13.7118 6.91168 15.4184C6.90388 15.4361 6.87728 15.4253 6.88318 15.4075C8.92038 9.33801 10.2729 3.94936 11.1237 0.370704C11.1297 0.348044 11.1405 0.280064 11.0549 0.267254C10.7362 0.217004 10.3998 0.173644 10.0555 0.137194C10.0142 0.133244 9.97388 0.159854 9.96398 0.201234C9.02558 4.14149 7.45468 10.1204 5.22968 16.5643C5.22378 16.582 5.19618 16.5751 5.20018 16.5564C6.60968 10.2337 7.35538 4.15036 7.73598 0.0938338C7.73798 0.0701838 7.73698 0.00712378 7.66618 0.00220378H7.65238C7.33468 -0.00173622 7.01498 -0.0007563 6.63928 0.0081137C6.59698 0.0091037 6.56148 0.0416136 6.55758 0.0849636C6.20448 3.83703 5.71458 7.52111 5.10078 11.0397C5.09788 11.0574 5.07228 11.0564 5.07128 11.0377C4.91688 7.86891 4.59128 4.25283 4.10338 0.282034C4.10038 0.259364 4.07578 0.202224 4.00798 0.208134C3.66368 0.254444 3.33318 0.307654 3.02528 0.367754C2.97318 0.377604 2.93868 0.426874 2.94458 0.480074C3.25148 2.98671 3.49548 5.37609 3.67058 7.58711C3.67158 7.60491 3.64798 7.60981 3.64208 7.59301C2.96528 5.60369 2.05838 3.40645 0.942882 1.05747C0.922182 1.01411 0.871082 0.995394 0.826782 1.0151C0.518882 1.15797 0.128382 1.37868 0.0201823 1.62205C-0.0083177 1.68511 -0.00631799 1.75999 0.024182 1.82503C1.53798 5.0598 2.63578 7.97431 3.28698 10.4879C3.28698 10.4879 3.38338 10.8692 3.39218 10.9096C4.15358 14.0951 3.79848 17.1269 3.67248 17.9792C2.99278 22.421 2.49608 23.6369 0.501182 28.0688C0.463882 28.1466 0.463882 28.2048 0.463882 28.2048C0.471682 28.5161 0.770782 28.8226 1.33238 29.1329C1.35308 29.1438 1.41798 29.1536 1.44648 29.1044L1.45048 29.0965C1.81738 28.3614 2.13998 27.716 2.43808 27.1199C3.43058 25.1345 4.16438 23.6664 5.41558 21.1283C5.42438 21.1115 5.44998 21.1204 5.44408 21.1381C4.23718 25.0961 3.16398 29.531 3.12558 29.7251C3.11678 29.7694 3.14238 29.8118 3.18468 29.8246C3.48658 29.9143 3.80928 29.9951 4.14368 30.065C4.19488 30.0759 4.24598 30.0443 4.25978 29.9941C4.51748 29.0531 4.77228 28.0708 5.01818 27.1209C5.67428 24.5906 6.35198 21.9796 7.19798 19.672C7.20488 19.6542 7.23038 19.6621 7.22748 19.6808C6.55168 23.6034 6.61658 27.0766 6.65988 29.4059C6.66478 29.6847 6.66978 29.9478 6.67368 30.1941C6.67368 30.2444 6.71298 30.2848 6.76318 30.2877C7.08088 30.3035 7.75958 30.3153 7.75958 30.3153H7.76548C7.80488 30.3153 7.85008 30.2936 7.85008 30.2345C7.85008 30.2345 7.73108 22.356 8.96358 17.0422C8.96758 17.0244 8.99408 17.0274 8.99408 17.0461C8.78948 22.1599 9.67288 26.8933 10.3663 30.0434C10.3752 30.0867 10.4155 30.1143 10.4588 30.1084C10.7991 30.064 11.1346 30.0108 11.4533 29.9498C11.4759 29.9458 11.5349 29.9202 11.5192 29.8493C11.0785 27.8491 9.75738 21.8534 10.2611 15.5514C10.2621 15.5327 10.2896 15.5327 10.2916 15.5514C10.9772 20.9095 12.612 25.8213 13.879 29.0314C13.9036 29.0896 13.9567 29.0994 14.0009 29.0728C14.4652 28.7979 14.7289 28.5063 14.7623 28.2304C14.7672 28.188 14.7613 28.1456 14.7436 28.0993Z" fill="white"/>
<path fill-rule="evenodd" clip-rule="evenodd" d="M38.7512 11.45C38.7512 8.47362 36.8174 6.70801 33.572 6.70801H27.1484V22.8007H29.5026V16.1921H32.7648L35.6571 22.8007H37.9945V22.2458L35.1527 16.0239C37.4732 15.5194 38.7512 13.8883 38.7512 11.45ZM29.5026 8.82682H33.3534C35.4385 8.82682 36.4138 9.65082 36.4138 11.4332C36.4138 13.2157 35.4385 14.0397 33.3534 14.0397H29.5026V8.82682ZM48.8575 19.0171C48.5043 20.4633 47.4281 21.1695 45.5784 21.1695C43.3755 21.1695 42.0134 19.8747 41.8621 17.6214H51.1108V16.3939C51.1108 12.9298 48.9752 10.7606 45.5279 10.7606C41.8957 10.7606 39.6424 13.1316 39.6424 16.932C39.6424 20.85 41.8117 23.1034 45.5784 23.1034C49.1265 23.1034 50.7913 21.0014 51.1612 19.0508L51.1948 18.9162H48.8911L48.8575 19.0171ZM41.9294 15.738C42.2657 13.8547 43.611 12.728 45.5279 12.728C47.5627 12.728 48.7566 13.7874 48.8911 15.738H41.9294ZM62.9323 12.9803C63.5882 11.5005 64.8325 10.7774 66.7495 10.7774C69.44 10.7774 70.9366 12.4926 70.9366 15.6372V22.7839H68.717V15.6203C68.717 13.6697 67.8762 12.7617 66.0769 12.7617C65.1856 12.7617 63.1173 13.098 63.1173 16.1753V22.7839H60.8976V15.6203C60.8976 13.6697 60.0568 12.7617 58.2576 12.7617C57.3663 12.7617 55.298 13.098 55.298 16.1753V22.7839H53.0783V11.0969H55.298V12.8289V12.8626H55.3316C55.3484 12.8626 55.3652 12.8626 55.3989 12.7953C56.0211 11.4332 57.1813 10.7774 58.9134 10.7774C60.7631 10.7774 62.0579 11.5846 62.6633 13.098C62.7137 13.1989 62.7305 13.1989 62.781 13.1989C62.8314 13.1989 62.8482 13.1652 62.9155 13.0139L62.9323 12.9803ZM82.0185 19.0171C81.6655 20.4633 80.5885 21.1695 78.7391 21.1695C76.5362 21.1695 75.1742 19.8747 75.0228 17.6214H84.2715V16.3939C84.2715 12.9298 82.1355 10.7606 78.6887 10.7606C75.0564 10.7606 72.8031 13.1316 72.8031 16.932C72.8031 20.85 74.9724 23.1034 78.7391 23.1034C82.2875 23.1034 83.9515 21.0014 84.3215 19.0508L84.3555 18.9162H82.0515L82.0185 19.0171ZM75.0901 15.7381C75.4264 13.8547 76.7717 12.728 78.6887 12.728C80.7235 12.728 81.9175 13.7874 82.0515 15.7381H75.0901ZM88.6775 13.0307C89.4675 11.4668 90.6785 10.7774 92.6455 10.7774C95.5215 10.7774 97.1695 12.5094 97.1695 15.5194V22.8007H94.9495V15.8558C94.9495 13.8379 93.9235 12.7785 91.9895 12.7785C89.7535 12.7785 88.5765 14.1406 88.5765 16.7302V22.8007H86.3565V11.1137H88.5765V13.0812C88.6435 13.098 88.6435 13.098 88.6775 13.0307ZM103.207 8.01962H100.987V11.0969H98.3465V13.098H100.987V19.3703C100.987 21.674 102.113 22.8007 104.417 22.8007H106.519V20.7996H106.065C105.028 20.7996 104.41 20.8503 103.979 20.8857C103.914 20.891 103.852 20.8961 103.795 20.9005C103.77 20.9026 103.745 20.9047 103.722 20.9068C103.703 20.9084 103.684 20.9101 103.666 20.9117C103.526 20.924 103.412 20.9341 103.307 20.9341C103.223 20.9341 103.19 20.9173 103.156 20.8837C103.122 20.8501 103.106 20.8164 103.106 20.7323C103.106 20.6339 103.115 20.5264 103.126 20.3902V20.3884C103.13 20.339 103.135 20.2858 103.139 20.2279C103.173 19.7738 103.223 19.0844 103.223 17.7223V13.098H106.519V11.0969H103.223V8.01962H103.207ZM107.629 16.9488C107.629 13.1989 110.017 10.7774 113.716 10.7774C117.416 10.7774 119.804 13.1989 119.804 16.9488C119.804 20.6987 117.416 23.1202 113.716 23.1202C110.017 23.1202 107.629 20.6987 107.629 16.9488ZM113.716 21.1191C116.087 21.1191 117.567 19.5216 117.567 16.9488C117.567 14.376 116.087 12.7785 113.716 12.7785C111.345 12.7785 109.866 14.376 109.866 16.9488C109.866 19.5216 111.345 21.1191 113.716 21.1191Z" fill="white"/>
</svg>
