<svg id="Layer_1" data-name="Layer 1" xmlns="http://www.w3.org/2000/svg" viewBox="0 0 354.56 272.74"><rect width="354.56" height="272.74" style="fill:#eaeaea"/><g id="NKBA"><path d="M191.42,99.81c5.12-1.65,8.33-5.38,8.33-10.85,0-8.33-6.17-15.3-17.19-15.3H152.14l-19.87,27.06V73.66h-12.1v59.06h12.1V116.38l5.73-6.85,15.7,23.19h29.91c12.32,0,19.78-7.75,19.78-18.25C203.39,107.1,199.49,101.72,191.42,99.81Zm-45.27.61,13.59-18.36v38.1Zm25.74-16.06h10c3.73,0,5.9,2.17,5.9,5.56s-2.6,5.55-6.51,5.55h-9.37ZM183.08,122H171.89V105.8h10.5c5.55,0,8.77,3.29,8.77,8.07S188,122,183.08,122Z" transform="translate(14.78 11.37)"/><polygon points="134.95 85.03 125.2 85.03 125.2 118.12 89.79 85.03 88.03 85.03 88.03 144.1 99.42 144.1 99.4 111.04 134.95 144.1 134.95 85.03"/><path d="M121.83,141h0v9.71h-1V139.53h1.19l6.43,9.72h0v-9.72h1v11.13h-1.22Z" transform="translate(14.78 11.37)"/><path d="M130.82,150.66l4.37-11.13h1.19l4.26,11.13h-1.08l-1.28-3.5h-5.07l-1.31,3.5Zm2.75-4.39h4.36l-2.18-5.84Z" transform="translate(14.78 11.37)"/><path d="M139.76,139.53h8.09v.9h-3.52v10.23h-1.05V140.43h-3.52Z" transform="translate(14.78 11.37)"/><path d="M149.42,150.66V139.53h1.05v11.13Z" transform="translate(14.78 11.37)"/><path d="M152.62,145.11a7.73,7.73,0,0,1,.33-2.29,5.53,5.53,0,0,1,1-1.86,4.62,4.62,0,0,1,1.6-1.26,5,5,0,0,1,2.21-.46,5.27,5.27,0,0,1,2.28.46,4.63,4.63,0,0,1,1.64,1.25,5.66,5.66,0,0,1,1,1.87,7.73,7.73,0,0,1,.33,2.29,7.53,7.53,0,0,1-.33,2.26,5.53,5.53,0,0,1-1,1.86,4.6,4.6,0,0,1-1.62,1.26,5.76,5.76,0,0,1-4.51,0,4.6,4.6,0,0,1-1.62-1.26,5.32,5.32,0,0,1-1-1.86A7.53,7.53,0,0,1,152.62,145.11Zm5.19,4.94a3.87,3.87,0,0,0,1.86-.41,3.77,3.77,0,0,0,1.29-1.08,4.79,4.79,0,0,0,.74-1.58,7.21,7.21,0,0,0,.24-1.87,7.06,7.06,0,0,0-.29-2.08,4.45,4.45,0,0,0-.83-1.57,3.43,3.43,0,0,0-1.31-1,4.17,4.17,0,0,0-1.73-.34,3.69,3.69,0,0,0-3.13,1.52,4.79,4.79,0,0,0-.74,1.58,7.21,7.21,0,0,0-.24,1.87,7.31,7.31,0,0,0,.24,1.89,4.74,4.74,0,0,0,.74,1.57,3.77,3.77,0,0,0,1.29,1.08A4,4,0,0,0,157.81,150.05Z" transform="translate(14.78 11.37)"/><path d="M166,141h0v9.71h-1V139.53h1.19l6.43,9.72h0v-9.72h1v11.13h-1.22Z" transform="translate(14.78 11.37)"/><path d="M175,150.66l4.37-11.13h1.19l4.26,11.13h-1.08l-1.28-3.5h-5.07l-1.31,3.5Zm2.75-4.39h4.35l-2.18-5.84Z" transform="translate(14.78 11.37)"/><path d="M186.21,150.66V139.53h1v10.23h6v.9Z" transform="translate(14.78 11.37)"/><path d="M120.85,165.19V154.07h1.05v5.76l5.7-5.76h1.19l-4.39,4.44,5.16,6.68h-1.28l-4.64-6-1.74,1.75v4.29Z" transform="translate(14.78 11.37)"/><path d="M131.15,165.19V154.07h1v11.12Z" transform="translate(14.78 11.37)"/><path d="M133.78,154.07h8.09v.9h-3.52v10.22h-1V155h-3.52Z" transform="translate(14.78 11.37)"/><path d="M150.68,157.3a3.16,3.16,0,0,0-1.2-2,4,4,0,0,0-2.3-.61,3.49,3.49,0,0,0-1.73.41,3.28,3.28,0,0,0-1.2,1.08,4.59,4.59,0,0,0-.7,1.57,7.55,7.55,0,0,0-.22,1.87,8.61,8.61,0,0,0,.19,1.83,4.78,4.78,0,0,0,.64,1.59,3.4,3.4,0,0,0,1.21,1.14,3.76,3.76,0,0,0,1.9.43,3.66,3.66,0,0,0,1.3-.23,3.15,3.15,0,0,0,1-.64,3.42,3.42,0,0,0,.74-1,4.34,4.34,0,0,0,.46-1.22h1.1a7.7,7.7,0,0,1-.54,1.53,4.42,4.42,0,0,1-.94,1.25,4.19,4.19,0,0,1-1.4.86,5.44,5.44,0,0,1-1.94.32,4.8,4.8,0,0,1-2.2-.47,4.29,4.29,0,0,1-1.49-1.28,5.46,5.46,0,0,1-.84-1.86,9.51,9.51,0,0,1-.26-2.25,8.19,8.19,0,0,1,.39-2.7,4.89,4.89,0,0,1,1.09-1.81,4.13,4.13,0,0,1,1.64-1,6.16,6.16,0,0,1,2-.32A5.41,5.41,0,0,1,149,154a4,4,0,0,1,1.29.67,3.58,3.58,0,0,1,.93,1.11,4.61,4.61,0,0,1,.5,1.52Z" transform="translate(14.78 11.37)"/><path d="M153.69,165.19V154.07h1.05v4.78h6.58v-4.78h1.05v11.12h-1.05v-5.45h-6.58v5.45Z" transform="translate(14.78 11.37)"/><path d="M164.77,165.19V154.07h7.4v.9h-6.35v4h5.73v.9h-5.73v4.42h6.51v.89Z" transform="translate(14.78 11.37)"/><path d="M175,155.49h0v9.7h-1V154.07h1.19l6.42,9.72h0v-9.72h1.05v11.12h-1.22Z" transform="translate(14.78 11.37)"/><path d="M187.86,156.31h.93v3.4h3.4v.92h-3.4V164h-.93v-3.4h-3.4v-.92h3.4Z" transform="translate(14.78 11.37)"/><path d="M194.07,165.19V154.07h4a6.21,6.21,0,0,1,1.67.2,3.29,3.29,0,0,1,1.14.57,2.33,2.33,0,0,1,.64.89,3.25,3.25,0,0,1,.2,1.14,3,3,0,0,1-.15,1,2.32,2.32,0,0,1-.41.71,1.85,1.85,0,0,1-.56.45,2.23,2.23,0,0,1-.66.22v0a2.56,2.56,0,0,1,1.73.91,3,3,0,0,1,.56,1.86,3.57,3.57,0,0,1-.27,1.47,2.51,2.51,0,0,1-.75,1,3,3,0,0,1-1.15.53,6.16,6.16,0,0,1-1.46.16Zm1.05-6.21h2.66a6,6,0,0,0,1.37-.13,2.5,2.5,0,0,0,.9-.41,1.54,1.54,0,0,0,.48-.67,2.5,2.5,0,0,0,.15-.9,2.14,2.14,0,0,0-.17-.89,1.33,1.33,0,0,0-.54-.59,2.83,2.83,0,0,0-1-.32,8.56,8.56,0,0,0-1.46-.1h-2.42Zm0,5.32h2.67a13.11,13.11,0,0,0,1.51-.08,2.9,2.9,0,0,0,1-.31,1.54,1.54,0,0,0,.63-.68,2.78,2.78,0,0,0,.21-1.17,2.39,2.39,0,0,0-.23-1.12,1.7,1.7,0,0,0-.67-.66,3,3,0,0,0-1-.31,9.16,9.16,0,0,0-1.35-.09h-2.79Z" transform="translate(14.78 11.37)"/><path d="M203,165.19l4.37-11.12h1.19l4.26,11.12h-1.08l-1.28-3.49h-5.07l-1.31,3.49Zm2.75-4.38h4.35L208,155Z" transform="translate(14.78 11.37)"/><path d="M212,154.07h8.1v.9h-3.52v10.22H215.5V155H212Z" transform="translate(14.78 11.37)"/><path d="M221.45,165.19V154.07h1.05v4.78h6.58v-4.78h1v11.12h-1v-5.45H222.5v5.45Z" transform="translate(14.78 11.37)"/><path d="M119.76,179.73l4.38-11.12h1.19l4.26,11.12h-1.08l-1.28-3.49h-5.07l-1.31,3.49Zm2.75-4.38h4.36l-2.18-5.84Z" transform="translate(14.78 11.37)"/><path d="M131.28,176.41a3.23,3.23,0,0,0,.33,1.26,2.42,2.42,0,0,0,.7.84,2.55,2.55,0,0,0,1,.47,4.56,4.56,0,0,0,1.19.15,4.08,4.08,0,0,0,1.28-.18,2.35,2.35,0,0,0,.88-.51,1.8,1.8,0,0,0,.5-.73,2.38,2.38,0,0,0,.17-.88,1.72,1.72,0,0,0-.3-1.05,2.22,2.22,0,0,0-.76-.66,5.27,5.27,0,0,0-1.08-.41l-1.25-.3a13,13,0,0,1-1.26-.35,3.9,3.9,0,0,1-1.08-.54,2.47,2.47,0,0,1-.76-.87,2.94,2.94,0,0,1-.06-2.46,2.86,2.86,0,0,1,.71-1,3.59,3.59,0,0,1,1.19-.67,5.08,5.08,0,0,1,1.63-.24,4.84,4.84,0,0,1,1.65.26,3.41,3.41,0,0,1,1.17.72,3,3,0,0,1,.69,1.06,3.63,3.63,0,0,1,.23,1.28h-1a2.51,2.51,0,0,0-.23-1.1,2.08,2.08,0,0,0-.61-.76,2.78,2.78,0,0,0-.88-.43,3.86,3.86,0,0,0-1-.14,3.59,3.59,0,0,0-1.35.23,2.41,2.41,0,0,0-.87.58,1.87,1.87,0,0,0-.45.78,1.83,1.83,0,0,0,0,.87,1.44,1.44,0,0,0,.43.86,2.59,2.59,0,0,0,.83.54,6.34,6.34,0,0,0,1.09.34l1.21.28a11.12,11.12,0,0,1,1.2.34,4,4,0,0,1,1,.54,2.49,2.49,0,0,1,.72.88,3.28,3.28,0,0,1-.8,3.73,4.74,4.74,0,0,1-3,.85,5.47,5.47,0,0,1-1.6-.23,3.42,3.42,0,0,1-1.28-.68,3,3,0,0,1-.85-1.12,3.89,3.89,0,0,1-.3-1.59Z" transform="translate(14.78 11.37)"/><path d="M140.69,176.41a3.23,3.23,0,0,0,.33,1.26,2.42,2.42,0,0,0,.7.84,2.55,2.55,0,0,0,1,.47,4.56,4.56,0,0,0,1.19.15,4.08,4.08,0,0,0,1.28-.18,2.35,2.35,0,0,0,.88-.51,1.8,1.8,0,0,0,.5-.73,2.38,2.38,0,0,0,.17-.88,1.72,1.72,0,0,0-.3-1.05,2.22,2.22,0,0,0-.76-.66,5.27,5.27,0,0,0-1.08-.41l-1.25-.3a13,13,0,0,1-1.26-.35,3.9,3.9,0,0,1-1.08-.54,2.47,2.47,0,0,1-.76-.87,3,3,0,0,1-.06-2.46,2.76,2.76,0,0,1,.72-1,3.44,3.44,0,0,1,1.18-.67,5.08,5.08,0,0,1,1.63-.24,4.84,4.84,0,0,1,1.65.26,3.41,3.41,0,0,1,1.17.72,3,3,0,0,1,.69,1.06,3.42,3.42,0,0,1,.23,1.28h-1a2.51,2.51,0,0,0-.23-1.1,2,2,0,0,0-.61-.76,2.78,2.78,0,0,0-.88-.43,3.86,3.86,0,0,0-1-.14,3.59,3.59,0,0,0-1.35.23,2.41,2.41,0,0,0-.87.58,1.87,1.87,0,0,0-.45.78,1.83,1.83,0,0,0,0,.87,1.44,1.44,0,0,0,.43.86,2.59,2.59,0,0,0,.83.54,6.34,6.34,0,0,0,1.09.34l1.21.28a11.12,11.12,0,0,1,1.2.34,4,4,0,0,1,1,.54,2.49,2.49,0,0,1,.72.88,3.28,3.28,0,0,1-.8,3.73,4.74,4.74,0,0,1-3,.85,5.47,5.47,0,0,1-1.6-.23,3.42,3.42,0,0,1-1.28-.68A3.15,3.15,0,0,1,140,178a3.89,3.89,0,0,1-.3-1.59Z" transform="translate(14.78 11.37)"/><path d="M149.08,174.19a7.68,7.68,0,0,1,.33-2.29,5.51,5.51,0,0,1,1-1.86,4.66,4.66,0,0,1,1.61-1.26,4.94,4.94,0,0,1,2.2-.46,5.39,5.39,0,0,1,2.28.45,4.65,4.65,0,0,1,1.64,1.25,5.5,5.5,0,0,1,1,1.87,7.8,7.8,0,0,1,.33,2.3,7.53,7.53,0,0,1-.33,2.26,5.46,5.46,0,0,1-1,1.85,4.47,4.47,0,0,1-1.62,1.26,5.64,5.64,0,0,1-4.51,0,4.5,4.5,0,0,1-1.63-1.26,5.44,5.44,0,0,1-1-1.85A7.53,7.53,0,0,1,149.08,174.19Zm5.19,4.94a3.87,3.87,0,0,0,1.86-.41,3.65,3.65,0,0,0,1.28-1.09,4.74,4.74,0,0,0,.74-1.57,7.21,7.21,0,0,0,.24-1.87,6.7,6.7,0,0,0-.29-2.08,4.51,4.51,0,0,0-.82-1.57,3.64,3.64,0,0,0-1.31-1,4.41,4.41,0,0,0-1.73-.34,3.83,3.83,0,0,0-1.85.42,3.72,3.72,0,0,0-1.28,1.11,4.52,4.52,0,0,0-.74,1.58,7.44,7.44,0,0,0,0,3.75,4.52,4.52,0,0,0,.74,1.58,3.64,3.64,0,0,0,1.28,1.08A4,4,0,0,0,154.27,179.13Z" transform="translate(14.78 11.37)"/><path d="M169.32,171.84a3.17,3.17,0,0,0-1.21-2,3.93,3.93,0,0,0-2.3-.61,3.49,3.49,0,0,0-1.73.41,3.36,3.36,0,0,0-1.2,1.08,4.81,4.81,0,0,0-.69,1.56,7.68,7.68,0,0,0-.23,1.88,8.46,8.46,0,0,0,.2,1.82,4.63,4.63,0,0,0,.64,1.6,3.45,3.45,0,0,0,1.2,1.14,3.79,3.79,0,0,0,1.9.43,3.58,3.58,0,0,0,1.3-.23,3.5,3.5,0,0,0,1-.64,3.78,3.78,0,0,0,.74-1,4.66,4.66,0,0,0,.45-1.22h1.1a6.38,6.38,0,0,1-.54,1.52,4.48,4.48,0,0,1-.93,1.26,4.34,4.34,0,0,1-1.41.86,5.44,5.44,0,0,1-1.94.32,4.75,4.75,0,0,1-2.19-.47,4.12,4.12,0,0,1-1.49-1.28,5.29,5.29,0,0,1-.85-1.86,9.57,9.57,0,0,1-.26-2.25,7.92,7.92,0,0,1,.4-2.7,4.76,4.76,0,0,1,1.09-1.82,4.25,4.25,0,0,1,1.63-1,6.49,6.49,0,0,1,2.06-.31,5.39,5.39,0,0,1,1.58.22,4.11,4.11,0,0,1,1.3.67,3.69,3.69,0,0,1,.92,1.11,4.62,4.62,0,0,1,.51,1.52Z" transform="translate(14.78 11.37)"/><path d="M172.54,179.73V168.61h1.05v11.12Z" transform="translate(14.78 11.37)"/><path d="M175.16,179.73l4.37-11.12h1.19L185,179.73H183.9l-1.28-3.49h-5.07l-1.31,3.49Zm2.75-4.38h4.35l-2.17-5.84Z" transform="translate(14.78 11.37)"/><path d="M184.1,168.61h8.09v.9h-3.52v10.22h-1V169.51H184.1Z" transform="translate(14.78 11.37)"/><path d="M193.76,179.73V168.61h1.05v11.12Z" transform="translate(14.78 11.37)"/><path d="M197,174.19a7.68,7.68,0,0,1,.33-2.29,5.51,5.51,0,0,1,1-1.86,4.75,4.75,0,0,1,1.61-1.26,5,5,0,0,1,2.21-.46,5.46,5.46,0,0,1,2.28.45A4.75,4.75,0,0,1,206,170a5.66,5.66,0,0,1,1,1.87,7.48,7.48,0,0,1,.34,2.3,7.23,7.23,0,0,1-.34,2.26,5.29,5.29,0,0,1-1,1.85,4.39,4.39,0,0,1-1.62,1.26,5.64,5.64,0,0,1-4.51,0,4.39,4.39,0,0,1-1.62-1.26,5.27,5.27,0,0,1-1-1.85A7.53,7.53,0,0,1,197,174.19Zm5.19,4.94a3.87,3.87,0,0,0,1.86-.41,3.57,3.57,0,0,0,1.28-1.09,4.57,4.57,0,0,0,.75-1.57,7.21,7.21,0,0,0,.24-1.87,7,7,0,0,0-.29-2.08,4.52,4.52,0,0,0-.83-1.57,3.56,3.56,0,0,0-1.31-1,4.34,4.34,0,0,0-1.73-.34,3.86,3.86,0,0,0-1.85.42,3.82,3.82,0,0,0-1.28,1.11,4.7,4.7,0,0,0-.74,1.58,7.44,7.44,0,0,0,0,3.75,4.7,4.7,0,0,0,.74,1.58,3.73,3.73,0,0,0,1.28,1.08A4,4,0,0,0,202.15,179.13Z" transform="translate(14.78 11.37)"/><path d="M210.35,170h0v9.7h-1V168.61h1.19l6.42,9.72h0v-9.72H218v11.12h-1.22Z" transform="translate(14.78 11.37)"/><path d="M220.91,72.91h-1l-26.08,59.82h11.77l2.8-6.69h24l2.79,6.69H248Zm-8.36,42.92,7.62-18.44L228,115.83Z" transform="translate(14.78 11.37)"/><rect id="_500x500px" data-name="500x500px" x="63.98" y="25.67" width="221.13" height="221.13" style="fill:#231f20;opacity:0"/></g></svg>