<svg id="Layer_1" data-name="Layer 1" xmlns="http://www.w3.org/2000/svg" viewBox="0 0 354.56 272.74"><rect width="354.56" height="272.74" style="fill:#eaeaea"/><g id="NKBA_KITCHEN_BATH_DI" data-name="NKBA KITCHEN &amp; BATH DI"><path d="M88,105.05c-1-3.07-3.21-5-6.48-5-5,0-9.15,3.69-9.15,10.29v18.22l16.18,11.9H72.37v7.25h35.31v-7.25H97.91L93.82,137l13.86-9.41v-17.9c0-7.38-4.63-11.85-10.91-11.85C92.36,97.88,89.15,100.22,88,105.05Zm.37,27.11-11-8.14h22.78Zm-9.6-15.42v-6c0-2.24,1.3-3.54,3.32-3.54s3.32,1.56,3.32,3.9v5.61Zm22.52-6.7v6.7H91.58v-6.29c0-3.32,2-5.25,4.83-5.25A4.58,4.58,0,0,1,101.29,110Z" transform="translate(14.78 11.37)" style="fill:#010101"/><polygon points="87.15 160.08 87.15 165.92 106.94 165.92 87.15 187.15 87.15 188.21 122.47 188.21 122.47 181.38 102.7 181.39 122.47 160.08 87.15 160.08" style="fill:#010101"/><path d="M107.41,71.44l-35.5,16V88l35.5,15.36.28.13v-7l-.28-.11-3.73-1.55V80.62l3.73-1.54.28-.11V71.32Zm-9.83,21-11-4.53,11-4.66Z" transform="translate(14.78 11.37)" style="fill:#010101"/><polygon points="140.61 164.44 139.74 167.23 141.45 167.23 140.64 164.44 140.61 164.44" style="fill:#010101"/><polygon points="206.34 106.08 206.32 106.08 205.5 108.62 207.15 108.62 206.34 106.08" style="fill:#010101"/><path d="M126.39,108.1h-3.54v12.68h3.49c1.44,0,5.31-.41,5.31-6.43C131.65,110.46,130.25,108.1,126.39,108.1Z" transform="translate(14.78 11.37)" style="fill:#010101"/><path d="M171.49,152.35h-.89v4.42h1.1c1.73,0,2-1.41,2-2.26A2,2,0,0,0,171.49,152.35Z" transform="translate(14.78 11.37)" style="fill:#010101"/><polygon points="164.36 164.44 163.49 167.23 165.2 167.23 164.39 164.44 164.36 164.44" style="fill:#010101"/><path d="M149,128.79h-3.54v12.67H149c1.44,0,5.32-.41,5.32-6.43C154.28,131.14,152.88,128.79,149,128.79Z" transform="translate(14.78 11.37)" style="fill:#010101"/><path d="M173.06,98.7a1.64,1.64,0,0,0,1-.52L173,96.91c-.36.17-.84.52-.84,1A.9.9,0,0,0,173.06,98.7Z" transform="translate(14.78 11.37)" style="fill:#010101"/><path d="M185.41,94.86c0-.53-.38-.7-.77-.7h-1.46v1.39h1.46A.7.7,0,0,0,185.41,94.86Z" transform="translate(14.78 11.37)" style="fill:#010101"/><path d="M107.69,71.32l-.28.12v105.4h140.2V71.32Zm105.55,43.32h6v-6h1.87v6h6v1.87h-6v6h-1.87v-6h-6ZM194.38,92.7h6.22v1.62h-2.17V100h-1.89V94.32h-2.16Zm-13.09,0h3.39c1.25,0,2.62.3,2.62,1.82a1.63,1.63,0,0,1-1,1.46,1.72,1.72,0,0,1,1.25,1.72c0,1.72-1.27,2.25-2.83,2.25h-3.48Zm4.52,18.88h-2.13c0-2.51-2.38-3.87-4.76-3.87-3.89,0-5.5,3.44-5.5,6.94s1.93,6.52,5.5,6.52a4.88,4.88,0,0,0,5.14-5.33h-5.12V114h7v8.6h-1.46l0-2.57a6.27,6.27,0,0,1-5.56,3c-4.79,0-7.64-4-7.64-8.24,0-4.76,2.56-8.88,7.64-8.88C182.42,105.88,185.81,107.77,185.81,111.58Zm-13.72-15.8a2.1,2.1,0,0,1-.64-1.4,2,2,0,0,1,2.07-1.84,1.93,1.93,0,0,1,2,1.88,2,2,0,0,1-1.24,1.8l.75.91a1.72,1.72,0,0,0,.27-.71h1.48a3,3,0,0,1-.8,1.76l1.52,1.77h-2.1l-.51-.61a3.07,3.07,0,0,1-2.08.76,2.27,2.27,0,0,1-2.42-2.21A2.4,2.4,0,0,1,172.09,95.78ZM160,92.7h1.94l2.52,4.47h0V92.7h1.78V100h-1.94l-2.52-4.52h0V100H160Zm8.13,13.57v16.34h-2.18V106.27ZM155.82,115c-2.62-.57-5.25-1.33-5.25-4.33,0-3.31,3-4.78,5.93-4.78,3.35,0,5.89,1.77,6,5.37h-2.06a3.72,3.72,0,0,0-4.06-3.54c-1.83,0-3.66.67-3.66,2.79s2.61,2.32,5.24,2.91,5.23,1.51,5.23,4.71c0,3.48-3.42,4.88-6.4,4.88-3.66,0-6.76-2-6.76-5.94h2.07c0,2.75,2.29,4.11,4.76,4.11,2,0,4.15-.62,4.15-3S158.43,115.56,155.82,115ZM153.05,92.7h5.78v1.51h-3.89v1.27h3.55v1.46h-3.55v1.39h4V100h-5.88Zm-7.56,0h1.89v2.64h2.49V92.7h1.89V100h-1.89V97h-2.49v3h-1.89Zm-4.3-.16a3.1,3.1,0,0,1,3.31,2.75h-1.89a1.32,1.32,0,0,0-1.46-1.12c-1.22,0-1.69,1.08-1.69,2.15s.47,2.16,1.69,2.16a1.35,1.35,0,0,0,1.46-1.34h1.89a3.05,3.05,0,0,1-3.31,3,3.78,3.78,0,0,1,0-7.56ZM137,106.27h11.08v1.83h-9.17v5.2h8.62v1.83h-8.62v5.65h9.23v1.83H137ZM126.56,127h2.29l8.52,13.24h0V127h2v16.33H137.1l-8.45-13.11h-.05v13.11h-2Zm-.39-4.35h-5.42V106.27h5.42c4.86,0,7.58,2.52,7.58,7.78C133.75,119.52,131.43,122.61,126.17,122.61Zm4.57-29.91H137v1.62h-2.17V100h-1.88V94.32h-2.17Zm-2.73,0h1.89V100H128Zm-7.54,0h1.89v2.78l2.39-2.78h2.35l-2.68,2.85,3,4.4h-2.34l-2-3-.78.82V100h-1.89Zm.28,34.26h1.91v16.33h-1.91Zm6.86,32.14-.38-1.3h-2.88l-.41,1.3h-2.81l3.34-9.07h2.73l3.31,9.07Zm13.86,0h-2.71l-1-5.53h0l-.95,5.53h-2.73L131.61,150h2.74l1.1,5.6h0l1.09-5.6H139l1.06,5.68h0l1.13-5.68H144Zm9.89,0-.38-1.3H148.1l-.41,1.3h-2.81l3.35-9.07H151l3.3,9.07Zm-2.58-15.81h-5.43V127h5.43c4.88,0,7.6,2.51,7.6,7.78C156.38,140.2,154.06,143.29,148.78,143.29Zm13.63,15.81a5.61,5.61,0,0,1-.23-1.4c-.08-.86-.16-1.76-1.26-1.76h-1.49v3.16h-2.79V150H162c1.59,0,3,.88,3,2.59a2.32,2.32,0,0,1-1.36,2.27,2.49,2.49,0,0,1,1.33,2.27,5.88,5.88,0,0,0,.31,1.94Zm-2.93-21.71V127h2.09v10.43c0,2.88,1.59,4.46,4.37,4.46s4.11-1.58,4.11-4.46V127h2.1v10.43c0,4.12-2.28,6.29-6.21,6.29S159.48,141.74,159.48,137.39Zm12.37,21.71h-4V150h4.58c3,0,4.09,2.24,4.09,4.52C176.48,157.33,175,159.1,171.85,159.1Zm11,.21c-1,0-4-.36-4-3.26h2.79a1.79,1.79,0,0,0,.1.6,1.31,1.31,0,0,0,1.34.66c.45,0,1.15-.15,1.15-.83,0-.47-.39-.6-1.95-1s-3.08-.8-3.08-2.63c0-2.09,1.79-3,3.66-3s3.71.75,3.78,3H184a.69.69,0,0,0-.33-.72,1.4,1.4,0,0,0-.82-.23c-.38,0-1,.1-1,.61s1.35.79,2.63,1.14,2.56,1,2.56,2.62C187.06,158.55,184.88,159.31,182.87,159.31Zm-1.36-15.63c-4.16,0-6.46-2-6.46-5.89h2c0,2.71,1.44,4.09,4.55,4.09,1.89,0,4-.61,4-2.94s-2.49-2.59-5-3.15-5-1.31-5-4.27c0-3.27,2.82-4.71,5.66-4.71,3.49,0,5.62,1.65,5.76,5.19h-2c-.24-2.3-1.41-3.39-3.88-3.39-1.75,0-3.5.66-3.5,2.75s2.5,2.28,5,2.87,5,1.49,5,4.65C187.61,142.31,184.35,143.68,181.51,143.68Zm9.09-51h1.92l2.71,7.25h-2l-.45-1.3h-2.53l-.46,1.3h-1.94ZM202,128.79h-5.35v14.5H194.5v-14.5h-5.35V127H202Zm.31-6.18h-2l-8.87-13.11h0v13.11h-1.72V106.27h1.76l8.81,13h0v-13h2Zm1-22.66h-1.89V92.7h1.89v2.64h2.49V92.7h1.89V100h-1.89V97H203.3Zm11.53,43.34c-.6-.66-.27-2.42-.58-4s-.6-3-2.65-3h-5.17v7h-2.12V127h7.49c3,0,4.83,1.67,4.83,4.27,0,2-.84,3.6-2.76,4.15v0c1.85.37,2.23,1.76,2.38,3.36s.05,3.39.94,4.51ZM226,136.61v6.68h-2.19v-6.68L217.48,127h2.6l4.93,7.78L230,127h2.49Z" transform="translate(14.78 11.37)" style="fill:#010101"/><path d="M185.71,97.62c0-.64-.45-.85-1-.85h-1.51v1.67h1.51C185.29,98.44,185.71,98.22,185.71,97.62Z" transform="translate(14.78 11.37)" style="fill:#010101"/><path d="M214.52,131.58a2.55,2.55,0,0,0-2.83-2.79h-5.26v5.69h4.41C212.82,134.48,214.52,134,214.52,131.58Z" transform="translate(14.78 11.37)" style="fill:#010101"/><path d="M174.16,94.32a.56.56,0,0,0-.61-.56.55.55,0,0,0-.57.54c0,.4.28.63.51.92C173.84,95,174.16,94.76,174.16,94.32Z" transform="translate(14.78 11.37)" style="fill:#010101"/><path d="M160.74,152.19h-1.31V154h1.46c.52,0,1.24-.09,1.24-.9C162.13,152.52,161.81,152.19,160.74,152.19Z" transform="translate(14.78 11.37)" style="fill:#010101"/><rect id="_500x500px" data-name="500x500px" x="63.98" y="25.67" width="221.13" height="221.13" style="fill:#010101;opacity:0"/></g></svg>