<svg id="Layer_1" data-name="Layer 1" xmlns="http://www.w3.org/2000/svg" viewBox="0 0 354.56 272.74"><rect width="354.56" height="272.74" style="fill:#eaeaea"/><g id="_425_2021_and_2019" data-name="425 2021 and 2019"><path d="M126.13,123.61v10.77h-13.4V123.61h-36v-7.38l40.8-46.3h8.56V112h12.05v11.62Zm-13.4-31.12L96,112h16.71Z" transform="translate(14.78 11.37)"/><path d="M187.62,134.38H140.81v-4.49l24.34-26.72c4.41-4.92,7.46-8.56,7.46-13.82s-3.48-8.65-8.73-8.65c-6.2,0-10.1,4.49-10.52,11.28L140.3,89.52C141,76.8,150.73,68.65,164,68.65c13.58,0,22.57,8.23,22.57,20.61,0,8.74-4.25,13.66-11.54,22l-9.33,10.69h21.88Z" transform="translate(14.78 11.37)"/><path d="M220.45,92.83h-9.33l1.69-10.44h27.57V69.93H201.79l-5.26,34.51h22.73c6.19,0,10.26,3.74,10.26,9.25,0,6-4.92,9.92-10.52,9.92-4.92,0-10-3-11.14-9.92H194.15c.34,14.33,11.88,22.05,24.6,22.05,13.91,0,24-9.07,24-22.22C242.75,101,234.36,92.83,220.45,92.83Z" transform="translate(14.78 11.37)"/><path d="M89.84,159.72H87.39v-7.13l-3.25,3.72h-1l-3.27-3.72v7.13H77.47v-11.6h1.6l4.58,5.25,4.58-5.25h1.61Z" transform="translate(14.78 11.37)"/><path d="M111.29,159.72l-.89-2h-5.34l-.89,2h-2.75l5.47-11.6h1.68l5.46,11.6Zm-3.55-7.94-1.71,3.8h3.41Z" transform="translate(14.78 11.37)"/><path d="M137.13,153a6.62,6.62,0,0,1,.06.93,5.75,5.75,0,0,1-5.89,6,6,6,0,1,1-.05-12.07,5.64,5.64,0,0,1,5.58,3.59l-2.43.7a3.26,3.26,0,0,0-3.15-2,3.74,3.74,0,0,0,.1,7.48,3.24,3.24,0,0,0,3.31-2.52h-4.29V153Z" transform="translate(14.78 11.37)"/><path d="M158.21,159.72l-.88-2H152l-.89,2h-2.75l5.47-11.6h1.68l5.46,11.6Zm-3.54-7.94-1.71,3.8h3.41Z" transform="translate(14.78 11.37)"/><path d="M181.83,159.72h-9.62v-.8l5.91-8.68h-5.74v-2.12h9.31v.79L176,157.6h5.84Z" transform="translate(14.78 11.37)"/><path d="M194,159.72v-11.6h2.52v11.6Z" transform="translate(14.78 11.37)"/><path d="M220,159.72h-1.57l-6.9-7.08v7.08h-2.52v-11.6h1.59l6.9,7.25v-7.25H220Z" transform="translate(14.78 11.37)"/><path d="M241.13,159.72h-8.52v-11.6h8.44v2.21h-5.92v2.52h5.54V155h-5.54v2.56h6Z" transform="translate(14.78 11.37)"/><g id="_2021" data-name="2021"><path d="M156.43,186h-6.1v-.59l3.17-3.48a2.73,2.73,0,0,0,1-1.8,1.07,1.07,0,0,0-1.14-1.13,1.39,1.39,0,0,0-1.37,1.47l-1.7-.32a2.86,2.86,0,0,1,3.09-2.72,2.66,2.66,0,0,1,2.94,2.69c0,1.14-.55,1.78-1.5,2.86l-1.22,1.39h2.86Z" transform="translate(14.78 11.37)"/><path d="M166,181.77a4.33,4.33,0,1,1-8.65,0,4.33,4.33,0,1,1,8.65,0Zm-1.83,0a2.5,2.5,0,1,0-2.49,2.69A2.56,2.56,0,0,0,164.15,181.77Z" transform="translate(14.78 11.37)"/><path d="M172.78,186h-6.1v-.59l3.17-3.48a2.73,2.73,0,0,0,1-1.8,1.07,1.07,0,0,0-1.14-1.13,1.39,1.39,0,0,0-1.37,1.47l-1.7-.32a2.86,2.86,0,0,1,3.1-2.72,2.67,2.67,0,0,1,2.94,2.69c0,1.14-.56,1.78-1.51,2.86l-1.21,1.39h2.85Z" transform="translate(14.78 11.37)"/><path d="M177.32,186h-1.81v-6.21l-2,.6v-1.65l3.45-1.14h.32Z" transform="translate(14.78 11.37)"/></g><rect id="_500x500px" data-name="500x500px" x="63.98" y="25.67" width="221.13" height="221.13" style="fill:#231f20;opacity:0"/></g></svg>