<svg width="127" height="21" xmlns="http://www.w3.org/2000/svg"><path d="M17.79.185A.596.596 0 0 0 17.369 0h-9.74C3.417 0 0 3.441 0 7.697v9.806c0 .167.055.315.184.426l2.867 2.886c.11.111.257.185.423.185h9.74c4.21 0 7.646-3.441 7.646-7.697V3.497a.537.537 0 0 0-.184-.426L17.791.185zM2.795 7.697v10.269c0 .185-.22.277-.35.148l-.919-.925a.21.21 0 0 1-.055-.148V7.697c0-3.441 2.757-6.217 6.176-6.217h8.748c.11 0 .202.093.202.204v11.6a3.384 3.384 0 0 1-3.381 3.405H7.333a.199.199 0 0 1-.184-.278l.35-.925c.036-.074.11-.13.183-.13h5.238a2.365 2.365 0 0 0 2.353-2.367V2.997a.205.205 0 0 0-.202-.203H7.646a4.892 4.892 0 0 0-4.852 4.903zm4.245 5.976V7.974a.87.87 0 0 1 .882-.87h5.661c.11 0 .202.093.202.204v5.699c0 .481-.386.888-.864.888H7.241c-.11-.018-.202-.11-.202-.222zm12.333-.388c0 3.422-2.757 6.216-6.157 6.216H4.466a.205.205 0 0 1-.202-.203V7.697c0-1.869 1.507-3.404 3.382-3.404h5.863c.147 0 .239.148.183.277l-.349.925c-.037.074-.11.13-.184.13H7.921A2.365 2.365 0 0 0 5.57 7.993v9.991c0 .111.092.204.202.204h7.425c2.684 0 4.852-2.184 4.852-4.885V3.016c0-.185.22-.278.35-.148l.918.925a.21.21 0 0 1 .056.148v9.344zm105-.666a.49.49 0 0 1 .128-.611 4.879 4.879 0 0 0 1.323-1.554c.386-.722.588-1.61.588-2.646 0-.685-.11-1.332-.312-1.961a3.779 3.779 0 0 0-1.03-1.591c-.477-.445-1.12-.815-1.91-1.074-.791-.259-1.765-.388-2.942-.388h-6.046a.488.488 0 0 0-.478.48v14.359c0 .259.22.48.478.48h3.602a.488.488 0 0 0 .478-.48v-3.941c0-.26.22-.481.478-.481h.937a.48.48 0 0 1 .423.259l2.169 4.385a.448.448 0 0 0 .422.259h3.841a.479.479 0 0 0 .423-.703l-2.573-4.792zm-2.997-3.35c-.312.278-.808.408-1.543.408h-1.14a.488.488 0 0 1-.478-.481V6.9c0-.259.22-.48.478-.48h1.14c.716 0 1.23.129 1.543.406.313.278.46.685.46 1.221 0 .537-.147.944-.46 1.222zm-12.387 5.107h-5.992a.488.488 0 0 1-.478-.48v-1.148c0-.259.221-.481.478-.481h5.183a.488.488 0 0 0 .478-.481V8.992a.488.488 0 0 0-.478-.481h-5.183a.488.488 0 0 1-.478-.481v-.98c0-.26.221-.482.478-.482h5.624a.488.488 0 0 0 .478-.48V3.292a.488.488 0 0 0-.478-.48H98.254a.488.488 0 0 0-.477.48v14.358c0 .26.22.481.477.481h10.477c.238 0 .459-.185.477-.444l.276-2.794a.5.5 0 0 0-.496-.518zm-17.056-4.015a.478.478 0 0 1-.037-.777c.35-.277.625-.61.827-.962a3.947 3.947 0 0 0 .441-1.869c0-.536-.091-1.036-.257-1.517-.165-.48-.46-.888-.864-1.258-.404-.352-.955-.648-1.635-.851-.68-.204-1.526-.315-2.555-.315h-6.617a.488.488 0 0 0-.477.481v14.358c0 .26.22.481.477.481h6.433c1.103 0 2.04-.13 2.794-.37.753-.24 1.36-.573 1.838-.98.46-.408.808-.889.992-1.444.202-.536.294-1.11.294-1.72 0-1.444-.551-2.535-1.654-3.257zm-6.763-3.57c0-.26.22-.482.477-.482h1.416c.588 0 1.01.093 1.213.296.22.204.312.481.312.851s-.11.666-.312.851c-.22.204-.625.297-1.213.297h-1.416a.488.488 0 0 1-.477-.482V6.79zm3.473 7.474c-.257.24-.753.37-1.47.37h-1.526a.488.488 0 0 1-.477-.48v-1.851c0-.26.22-.481.477-.481h1.526c.717 0 1.213.13 1.47.37.258.24.386.592.386 1.055 0 .425-.128.777-.386 1.017zm-13.71-3.904a.478.478 0 0 1-.037-.777c.349-.277.625-.61.827-.962a3.947 3.947 0 0 0 .44-1.869c0-.536-.091-1.036-.256-1.517-.166-.48-.46-.888-.864-1.258-.405-.352-.956-.648-1.636-.851-.68-.204-1.525-.315-2.555-.315h-6.635a.488.488 0 0 0-.477.481v14.358c0 .26.22.481.477.481h6.433c1.103 0 2.04-.13 2.794-.37.753-.24 1.36-.573 1.838-.98.46-.408.808-.889.992-1.444.202-.536.294-1.11.294-1.72.019-1.444-.533-2.535-1.636-3.257zm-6.764-3.57c0-.26.22-.482.478-.482h1.415c.588 0 1.01.093 1.213.296.22.204.312.481.312.851s-.11.666-.312.851c-.22.204-.625.297-1.213.297h-1.415a.488.488 0 0 1-.478-.482V6.79zm3.474 7.474c-.258.24-.754.37-1.47.37h-1.526a.488.488 0 0 1-.478-.48v-1.851c0-.26.22-.481.478-.481h1.525c.717 0 1.213.13 1.47.37.258.24.387.592.387 1.055 0 .425-.13.777-.386 1.017zM57.545 4.552a6.143 6.143 0 0 0-2.39-1.573c-.937-.37-2.04-.555-3.27-.555-1.27 0-2.39.185-3.346.573a6.257 6.257 0 0 0-2.426 1.629c-.662.703-1.14 1.554-1.47 2.553-.331.999-.496 2.11-.496 3.349 0 1.24.165 2.368.496 3.349.33.98.808 1.831 1.452 2.516a6.143 6.143 0 0 0 2.389 1.573c.937.37 2.04.555 3.271.555 1.269 0 2.371-.185 3.345-.574a6.397 6.397 0 0 0 2.426-1.628c.644-.703 1.14-1.554 1.47-2.572.332-1.017.497-2.128.497-3.386 0-1.24-.165-2.35-.496-3.33-.331-.962-.809-1.795-1.452-2.48zm-5.734 9.787c-1.783 0-2.665-1.295-2.665-3.867s.882-3.867 2.665-3.867c1.782 0 2.665 1.295 2.665 3.867s-.883 3.867-2.665 3.867zM39.515 2.812h-3.878a.488.488 0 0 0-.478.481v9.103c0 .593-.128 1.074-.367 1.425-.258.352-.662.518-1.232.518s-.992-.203-1.25-.592c-.202-.314-.349-.721-.404-1.24a.493.493 0 0 0-.478-.425H27.55a.485.485 0 0 0-.478.518c.129 1.832.699 3.256 1.673 4.256 1.084 1.11 2.683 1.646 4.797 1.646 2.003 0 3.584-.536 4.723-1.591 1.14-1.073 1.71-2.646 1.71-4.737v-8.88a.45.45 0 0 0-.46-.482z" fill="#93A1A9" fill-rule="nonzero"/></svg>